<mxfile host="65bd71144e">
    <diagram id="d5sBMp1hRKsce4o4AKNM" name="Page-1">
        <mxGraphModel dx="744" dy="368" grid="1" gridSize="10" guides="1" tooltips="1" connect="1" arrows="1" fold="1" page="1" pageScale="1" pageWidth="850" pageHeight="1100" math="0" shadow="0">
            <root>
                <mxCell id="0"/>
                <mxCell id="1" parent="0"/>
                <mxCell id="2" value="Plaats beker" style="rounded=0;whiteSpace=wrap;html=1;" vertex="1" parent="1">
                    <mxGeometry x="210" y="40" width="240" height="40" as="geometry"/>
                </mxCell>
                <mxCell id="3" value="Selecteer drank" style="rounded=0;whiteSpace=wrap;html=1;" vertex="1" parent="1">
                    <mxGeometry x="210" y="80" width="240" height="40" as="geometry"/>
                </mxCell>
                <mxCell id="4" value="" style="rounded=0;whiteSpace=wrap;html=1;fillColor=default;" vertex="1" parent="1">
                    <mxGeometry x="183.75" y="121.25" width="280" height="110" as="geometry"/>
                </mxCell>
                <mxCell id="5" value="Ja&amp;nbsp; &amp;nbsp; &amp;nbsp; &amp;nbsp; &amp;nbsp; &amp;nbsp; &amp;nbsp; &amp;nbsp; &amp;nbsp; &amp;nbsp; &amp;nbsp; &amp;nbsp; &amp;nbsp; &amp;nbsp; &amp;nbsp; &amp;nbsp; &amp;nbsp; &amp;nbsp; &amp;nbsp; &amp;nbsp; &amp;nbsp; Nee" style="rounded=0;whiteSpace=wrap;html=1;fillColor=default;opacity=0;" vertex="1" parent="1">
                    <mxGeometry x="150" y="221.25" width="340" height="30" as="geometry"/>
                </mxCell>
                <mxCell id="6" value="beker?" style="triangle;whiteSpace=wrap;html=1;fillColor=default;rotation=90;horizontal=0;" vertex="1" parent="1">
                    <mxGeometry x="288.75" y="20" width="77.5" height="280" as="geometry"/>
                </mxCell>
                <mxCell id="7" value="" style="rounded=0;whiteSpace=wrap;html=1;fillColor=default;" vertex="1" parent="1">
                    <mxGeometry x="183.75" y="231.25" width="280" height="110" as="geometry"/>
                </mxCell>
                <mxCell id="10" value="" style="endArrow=none;html=1;entryX=0;entryY=0;entryDx=0;entryDy=0;exitX=0.911;exitY=-0.102;exitDx=0;exitDy=0;exitPerimeter=0;" edge="1" parent="1" target="7">
                    <mxGeometry width="50" height="50" relative="1" as="geometry">
                        <mxPoint x="463.49" y="308.19000000000005" as="sourcePoint"/>
                        <mxPoint x="413.75" y="240" as="targetPoint"/>
                    </mxGeometry>
                </mxCell>
                <mxCell id="11" value="keuze = ?" style="whiteSpace=wrap;html=1;opacity=0;" vertex="1" parent="1">
                    <mxGeometry x="332.5" y="240" width="120" height="30" as="geometry"/>
                </mxCell>
                <mxCell id="12" value="next:=A" style="rounded=0;whiteSpace=wrap;html=1;" vertex="1" parent="1">
                    <mxGeometry x="183.75" y="341.25" width="85" height="41.25" as="geometry"/>
                </mxCell>
                <mxCell id="13" value="next=..." style="rounded=0;whiteSpace=wrap;html=1;" vertex="1" parent="1">
                    <mxGeometry x="368.75" y="341.25" width="95" height="41.25" as="geometry"/>
                </mxCell>
                <mxCell id="14" value="next:=B" style="rounded=0;whiteSpace=wrap;html=1;" vertex="1" parent="1">
                    <mxGeometry x="268.75" y="341.25" width="100" height="41.25" as="geometry"/>
                </mxCell>
                <mxCell id="15" value="A&amp;nbsp; &amp;nbsp; &amp;nbsp; &amp;nbsp; &amp;nbsp; &amp;nbsp; &amp;nbsp; &amp;nbsp; &amp;nbsp; &amp;nbsp; &amp;nbsp; &amp;nbsp; &amp;nbsp; B&amp;nbsp; &amp;nbsp; &amp;nbsp; &amp;nbsp; &amp;nbsp; &amp;nbsp; &amp;nbsp; &amp;nbsp; &amp;nbsp; &amp;nbsp; &amp;nbsp; &amp;nbsp; &amp;nbsp; &amp;nbsp; ..." style="rounded=0;whiteSpace=wrap;html=1;opacity=0;" vertex="1" parent="1">
                    <mxGeometry x="183.75" y="310" width="285" height="31.25" as="geometry"/>
                </mxCell>
            </root>
        </mxGraphModel>
    </diagram>
</mxfile>